<?xml version="1.0" encoding="iso-8859-1"?>
<!-- Uploaded to: SVG Repo, www.svgrepo.com, Generator: SVG Repo Mixer Tools -->
<svg height="800px" width="800px" version="1.1" id="Layer_1" xmlns="http://www.w3.org/2000/svg" xmlns:xlink="http://www.w3.org/1999/xlink" 
	 viewBox="0 0 512.003 512.003" xml:space="preserve">
<circle style="fill:#CEE8FA;" cx="256.004" cy="212.084" r="63.821"/>
<path style="fill:#2D527C;" d="M256.075,162.946c-4.165,0-8.299-1.766-11.199-5.207c-0.006-0.006-0.106-0.125-0.112-0.132
	c-5.225-6.22-4.417-15.498,1.802-20.723c6.222-5.226,15.498-4.417,20.723,1.802c0.001,0.003,0.037,0.046,0.04,0.049
	c5.214,6.219,4.439,15.522-1.774,20.745C262.789,161.806,259.421,162.946,256.075,162.946z"/>
<g>
	<circle style="fill:#CEE8FA;" cx="192.184" cy="322.634" r="63.821"/>
	<circle style="fill:#CEE8FA;" cx="319.825" cy="322.634" r="63.821"/>
</g>
<path style="fill:#2D527C;" d="M383.647,133.546c-26.275,0-49.559,12.983-63.823,32.858C305.56,146.53,282.275,133.546,256,133.546
	s-49.559,12.983-63.823,32.858c-7.376-10.277-17.162-18.703-28.533-24.449c2.996-3.309,6.813-7.142,11.249-10.74
	c5.401-4.38,6.997-11.943,3.826-18.131c-5.595-10.918-6.354-25.734-5.825-36.311c9.544-0.524,23.721-0.106,35.065,5.202
	c3.957,1.852,8.531,1.85,12.485-0.007c3.954-1.856,6.878-5.373,7.981-9.6c4.282-16.403,18.355-30.853,27.559-38.87
	c9.212,8.05,23.334,22.559,27.59,38.869c1.103,4.227,4.027,7.744,7.981,9.6c3.954,1.856,8.53,1.859,12.485,0.007
	c18.724-8.763,45.167-4.19,45.75-4.088c7.978,1.475,15.641-3.799,17.122-11.779c1.484-7.987-3.787-15.663-11.774-17.147
	c-1.205-0.224-24.95-4.496-48.655,1.225c-13.639-27.768-40.815-46.682-42.153-47.601c-5.017-3.445-11.639-3.446-16.656,0
	c-1.336,0.921-28.514,19.833-42.155,47.603c-23.706-5.72-47.448-1.449-48.655-1.225c-5.982,1.111-10.664,5.792-11.774,11.774
	c-0.249,1.343-5.28,29.35,3.014,54.982c-8.788,8.53-14.434,16.332-15.566,17.942c-1.386-0.074-2.778-0.113-4.182-0.113
	c-43.302,0-78.532,35.229-78.532,78.532c0,40.712,31.141,74.278,70.853,78.151c-4.501,9.889-7.029,20.858-7.029,32.413
	c0,40.75,31.201,74.342,70.967,78.16c-4.574,9.955-7.145,21.014-7.145,32.668c0,8.124,6.585,14.709,14.709,14.709
	s14.709-6.585,14.709-14.709c0-27.081,22.032-49.115,49.115-49.115s49.115,22.032,49.115,49.115
	c0,27.083-22.032,49.115-49.115,49.115c-8.124,0-14.709,6.585-14.709,14.709s6.585,14.709,14.709,14.709
	c43.302,0,78.532-35.229,78.532-78.532c0-11.654-2.571-22.713-7.145-32.668c39.766-3.818,70.967-37.41,70.967-78.16
	c0-12.104-2.756-23.575-7.669-33.825c4.568-2.496,7.669-7.343,7.669-12.916c0-8.124-6.585-14.709-14.709-14.709
	c-27.081,0-49.115-22.032-49.115-49.115s22.032-49.115,49.115-49.115s49.115,22.032,49.115,49.115
	c0,8.124,6.585,14.709,14.709,14.709s14.709-6.585,14.709-14.709C462.179,168.775,426.95,133.546,383.647,133.546z M256.001,162.964
	c27.081,0,49.115,22.032,49.115,49.115s-22.032,49.115-49.115,49.115s-49.115-22.032-49.115-49.115S228.92,162.964,256.001,162.964z
	 M79.241,212.079c0-27.081,22.032-49.115,49.115-49.115s49.115,22.032,49.115,49.115s-22.032,49.115-49.115,49.115
	S79.241,239.16,79.241,212.079z M143.064,322.643c0-27.081,22.032-49.115,49.115-49.115s49.115,22.032,49.115,49.115
	c0,27.083-22.032,49.115-49.115,49.115S143.064,349.724,143.064,322.643z M319.825,371.756c-27.081,0-49.115-22.032-49.115-49.115
	s22.032-49.115,49.115-49.115s49.115,22.032,49.115,49.115S346.906,371.756,319.825,371.756z"/>
</svg>